<svg width="36" height="36" viewBox="0 0 36 36" fill="none" xmlns="http://www.w3.org/2000/svg">
<rect width="36" height="36" fill="white"/>
<path fill-rule="evenodd" clip-rule="evenodd" d="M10 2H25V6H10V2ZM33 19.7372H25.2535V8.65481H10.1337V19.7372H2.38721L17.6936 35L33 19.7372ZM17.6821 16.6722C17.5689 16.6093 17.4311 16.6093 17.3179 16.6722L15.0435 17.9359L12.8179 19.1722C12.6988 19.2383 12.625 19.3638 12.625 19.5V24.5C12.625 24.6362 12.6988 24.7617 12.8179 24.8278L17.3179 27.3278C17.4311 27.3907 17.5689 27.3907 17.6821 27.3278L22.1821 24.8278C22.3012 24.7617 22.375 24.6362 22.375 24.5V19.5C22.375 19.3638 22.3012 19.2383 22.1821 19.1722L17.6821 16.6722ZM15.9999 18.2625L17.5 17.429L21.625 19.7207V21.3649L15.9999 18.2625ZM15.6027 18.8999L21.2257 22.0012L15.6229 25.1138L15.6027 18.8999ZM14.8527 18.8998L14.8729 25.1115L13.375 24.2794V19.7207L14.8527 18.8998ZM21.625 22.6373L16.0222 25.75L17.5 26.571L21.625 24.2794V22.6373Z" fill="url(#paint0_linear_3027_54)"/>
<defs>
<linearGradient id="paint0_linear_3027_54" x1="35.7033" y1="29.9675" x2="4.44703" y2="-0.138523" gradientUnits="userSpaceOnUse">
<stop stop-color="#4BA1FC"/>
<stop offset="1" stop-color="#EC2AED"/>
</linearGradient>
</defs>
</svg>
