<svg width="16" height="16" viewBox="0 0 16 16" fill="none" xmlns="http://www.w3.org/2000/svg">
<path fill-rule="evenodd" clip-rule="evenodd" d="M14.8523 2.26796C15.0493 2.46498 15.0493 2.99114 14.8523 3.18815L13.9321 4.10834L12.0917 2.26796L13.0119 1.34778C13.2089 1.15076 13.7351 1.15076 13.9321 1.34778L14.8523 2.26796ZM11.4783 2.88144L13.3186 4.72181L8.84038 9.16465H7V7.33462L11.4783 2.88144Z" fill="#6E6E6E"/>
<path fill-rule="evenodd" clip-rule="evenodd" d="M14 7V11.2143V12.2143H13H6.17857L3 14.3333L2 15V13.7982V4V3H3H9V4H3V13.1315L5.62387 11.3822L5.8758 11.2143H6.17857H13V7H14Z" fill="#6E6E6E"/>
</svg>
