<svg width="13" height="13" viewBox="0 0 13 13" fill="none" xmlns="http://www.w3.org/2000/svg">
<path fill-rule="evenodd" clip-rule="evenodd" d="M6.25733 1.06223C6.4078 0.97926 6.59218 0.979256 6.74264 1.06222L11.7516 3.82401C11.9051 3.90868 12 4.06685 12 4.23821V9.76179C12 9.93316 11.9051 10.0913 11.7516 10.176L6.74264 12.9378C6.59218 13.0207 6.40782 13.0207 6.25736 12.9378L1.24843 10.176C1.09486 10.0913 1 9.93316 1 9.76179L1 4.23821C1 4.06684 1.09487 3.90867 1.24845 3.824L6.25733 1.06223ZM3.48003 3.68966L1.98215 4.51546L1.98215 9.48456L3.50177 10.3224L3.48003 3.68966ZM4.98941 11.1427L6.5 11.9756L11.0178 9.48456V7.81876L4.98941 11.1427ZM11.0178 6.18416V4.51544L6.50001 2.02443L4.96499 2.8709L11.0178 6.18416ZM4.46219 3.68973L4.48394 10.3254L10.5123 7.0015L4.46219 3.68973Z" fill="url(#paint0_linear_2405_754)"/>
<defs>
<linearGradient id="paint0_linear_2405_754" x1="12.9714" y1="11.17" x2="1.61133" y2="0.357698" gradientUnits="userSpaceOnUse">
<stop stop-color="#4BA1FC"/>
<stop offset="1" stop-color="#EC2AED"/>
</linearGradient>
</defs>
</svg>
