<svg width="39" height="40" viewBox="0 0 39 40" fill="none" xmlns="http://www.w3.org/2000/svg">
<path fill-rule="evenodd" clip-rule="evenodd" d="M12.6156 10.7385C12.8517 10.6041 13.1411 10.6041 13.3773 10.7384L25.6035 17.6939C25.8442 17.8309 25.9929 18.0865 25.9929 18.3634L25.9929 32.2744C25.9929 32.5513 25.8442 32.8068 25.6035 32.9438L13.3773 39.8993C13.1411 40.0336 12.8517 40.0336 12.6156 39.8993L0.389331 32.9438C0.14865 32.8068 0 32.5513 0 32.2744L0 18.3634C0 18.0864 0.148665 17.8308 0.389365 17.6939L6.43628 14.2542L12.6156 10.7385ZM12.9965 12.2939L8.37886 14.9212L24.4526 23.9994V18.8113L12.9965 12.2939ZM23.6609 25.3213L7.5915 16.2455L7.64926 34.4303L23.6609 25.3213ZM6.10892 34.4255L6.05118 16.2454L1.54032 18.8113L1.54032 31.8264L6.10892 34.4255ZM8.44081 35.7521L24.4526 26.6431L24.4526 31.8264L12.9964 38.3438L8.44081 35.7521Z" fill="url(#paint0_linear_1124_2400)"/>
<path opacity="0.1" d="M35.656 20.8452C35.656 20.8452 34.8802 18.7582 32.6719 18.9053L32.7149 18.9025L32.6171 18.501C32.767 16.7427 33.0512 12.7104 32.6641 11.1795C32.1643 9.19744 30.6447 2.66467 21.8891 2.22638C17.8272 2.02289 15.0046 3.77558 13.1391 5.74412C12.8344 6.06573 12.5553 6.39318 12.3004 6.71888L12.3184 6.71561C10.7696 6.97856 9.28377 7.91221 9.21009 10.5051C9.1273 13.4264 10.454 14.825 10.454 14.825C10.454 14.825 10.3934 13.8204 10.4136 13.5737C10.4136 13.5737 13.4131 12.3339 17.6404 15.2773C17.6404 15.2773 17.0254 14.1347 17.0786 13.822C17.0786 13.822 20.1933 16.4538 21.787 17.0612C21.787 17.0612 21.5028 16.0533 21.4923 15.7566C21.4923 15.7566 22.3761 16.4895 24.0541 17.9001C26.1509 19.6623 26.2157 21.4238 26.2157 21.4238C26.2157 21.4238 27.9721 20.5018 28.4843 18.4531L28.4669 18.5215C28.5128 18.4403 28.5614 18.3598 28.6063 18.2813C28.6984 18.1168 28.7845 17.96 28.8463 17.8303C28.9882 17.5342 29.0991 17.2669 29.186 17.0325C29.4461 16.3306 29.4886 15.9249 29.4885 15.9235L29.5878 16.1962L30.7978 19.5281L30.8365 19.5018C29.3316 20.5001 29.8001 22.2893 29.802 22.7216L30.2107 22.4713C30.2107 22.4713 30.6717 23.978 31.3314 24.4126L31.3958 24.001C31.3958 24.001 32.8384 24.8115 33.0969 25.3087L33.409 24.4284C33.409 24.4284 33.6967 24.9578 33.7574 25.1039C33.7574 25.1039 35.0109 24.0969 34.9743 23.1799C34.9743 23.1799 35.2455 23.5085 35.2358 23.7587C35.2358 23.7587 36.37 22.6763 35.131 20.8127L35.656 20.8452ZM28.5748 17.9987C28.5741 18.0046 28.5733 18.0106 28.5725 18.0165C28.5774 17.9796 28.5823 17.9421 28.5872 17.9046C28.5843 17.9272 28.5813 17.9494 28.5784 17.9717L28.5748 17.9987ZM28.5224 18.2928C28.5297 18.2585 28.536 18.2264 28.5423 18.1926C28.536 18.2264 28.5295 18.2599 28.5224 18.2928V18.2928ZM28.5487 18.1596C28.5533 18.1249 28.5611 18.0874 28.5669 18.051C28.5611 18.0874 28.5552 18.1237 28.5487 18.1596V18.1596ZM28.4469 15.9205C28.4341 15.8682 28.4205 15.8155 28.4061 15.7625C28.4208 15.8151 28.4344 15.8675 28.447 15.9198L28.4469 15.9205ZM28.489 16.1006C28.4778 16.0496 28.4673 15.9981 28.4534 15.9461C28.466 15.9972 28.4779 16.0489 28.4891 16.0999L28.489 16.1006ZM28.5253 16.282C28.516 16.2324 28.5061 16.1823 28.4954 16.1322C28.5063 16.1806 28.5163 16.2306 28.5256 16.2803L28.5253 16.282ZM28.5435 16.3844C28.5479 16.4097 28.5523 16.4353 28.556 16.4606C28.5484 16.4119 28.5401 16.3624 28.5308 16.3124C28.5357 16.3346 28.5399 16.3588 28.5451 16.3828L28.5435 16.3844ZM28.5807 16.6366C28.5746 16.5867 28.5675 16.5366 28.5597 16.4861C28.568 16.5353 28.5752 16.5853 28.5823 16.6354L28.5807 16.6366ZM28.5985 16.7958C28.5938 16.7482 28.5886 16.7001 28.5822 16.6523C28.5891 16.6988 28.5944 16.7468 28.599 16.7944L28.5985 16.7958ZM28.6127 16.9555C28.6097 16.9085 28.6061 16.8611 28.6015 16.8128C28.6052 16.8595 28.609 16.906 28.6108 16.9539L28.6127 16.9555ZM28.6212 17.1178C28.6197 17.0731 28.6175 17.0283 28.6147 16.983C28.6166 17.0267 28.6188 17.0715 28.6203 17.1162L28.6212 17.1178ZM28.6246 17.279C28.6243 17.2358 28.6237 17.1923 28.6224 17.1487C28.6229 17.1904 28.6235 17.2343 28.6238 17.2774L28.6246 17.279ZM28.623 17.4381C28.6244 17.3955 28.6248 17.3525 28.6248 17.3094C28.6239 17.3509 28.6232 17.3939 28.622 17.4376L28.623 17.4381ZM28.617 17.5857C28.6191 17.5453 28.6209 17.5049 28.6221 17.4637C28.62 17.5034 28.6183 17.5431 28.6161 17.5841L28.617 17.5857ZM28.6067 17.7274C28.6119 17.6882 28.6133 17.6484 28.6157 17.6085C28.6122 17.6483 28.6093 17.6864 28.6059 17.7259L28.6067 17.7274ZM28.5921 17.8728C28.5972 17.8342 28.6023 17.7953 28.6044 17.756C28.6001 17.7936 28.5957 17.8326 28.5913 17.8713L28.5921 17.8728ZM28.577 15.9377C28.6565 16.0241 28.7542 16.1323 28.8478 16.2425L28.756 16.1379C28.6928 16.0638 28.6315 15.995 28.5762 15.9361L28.577 15.9377ZM26.4679 21.1794L26.4336 21.213L26.4679 21.1794ZM26.4199 21.2264L26.3522 21.2934L26.4199 21.2264ZM26.3349 21.3102L26.313 21.3321L26.3349 21.3102ZM12.485 6.69128L12.4599 6.69468L12.485 6.69128ZM12.5656 6.68071L12.5406 6.68376L12.5656 6.68071ZM12.6454 6.67143L12.6215 6.67393L12.6454 6.67143ZM12.7254 6.66289L12.7025 6.66519L12.7254 6.66289ZM12.8053 6.6554L12.7835 6.65748L12.8053 6.6554ZM12.8849 6.6493L12.8651 6.65056L12.8849 6.6493ZM12.9642 6.64384L12.9468 6.64473L12.9642 6.64384ZM13.0433 6.63943L13.0291 6.64003L13.0433 6.63943ZM13.1223 6.63571L13.1124 6.63617L13.1223 6.63571ZM13.2008 6.63298L13.1967 6.63244L13.2008 6.63298ZM15.8825 6.97397C15.6802 7.09852 15.5058 7.19812 15.3621 7.27598C15.3572 7.27817 15.353 7.28045 15.3484 7.28302C15.4948 7.20409 15.6733 7.10256 15.8822 6.97393L15.8825 6.97397ZM21.0801 8.46502C20.9236 8.46348 20.7605 8.51441 20.6092 8.58597C20.523 8.6269 20.4397 8.67363 20.3598 8.72586C20.5688 8.59054 20.8325 8.46278 21.0801 8.46502V8.46502ZM28.8633 15.4836C29.1006 16.1974 29.1605 16.6727 29.1605 16.6727C29.1611 16.6685 28.9861 15.2949 28.0603 13.71C28.3883 14.2715 28.6574 14.8657 28.8634 15.4829L28.8633 15.4836ZM12.4036 6.7028L12.3798 6.70639L12.4036 6.7028ZM14.8895 7.50801C15.6392 7.45849 16.3915 7.46727 17.1398 7.53425C16.3909 7.46707 15.6378 7.4582 14.8875 7.50773L14.8895 7.50801ZM26.2271 21.4147L26.2181 21.4238L26.2271 21.4147ZM26.3039 21.339C26.2999 21.3431 26.2962 21.3472 26.2918 21.3512L26.3039 21.339ZM26.2469 21.3954L26.2372 21.4047C26.2399 21.402 26.2429 21.3989 26.2462 21.3953L26.2469 21.3954ZM26.5439 21.1025C26.5572 21.0897 26.569 21.0779 26.5791 21.0679L26.5439 21.1025ZM26.5977 21.0495L26.6018 21.0455C26.6003 21.0469 26.5987 21.0482 26.5971 21.0494L26.5977 21.0495ZM26.6095 21.038L26.6176 21.0299L26.6095 21.038ZM28.5159 18.3287C28.5095 18.3586 28.5024 18.3881 28.4954 18.4175C28.501 18.3879 28.5081 18.3584 28.5145 18.3285L28.5159 18.3287ZM32.6512 18.9072C32.6157 18.9096 32.5832 18.9127 32.549 18.9163C32.5818 18.9132 32.616 18.9096 32.6495 18.9069L32.6512 18.9072ZM31.5676 19.1431C31.6378 19.118 31.7114 19.0942 31.7883 19.0718C31.7111 19.0942 31.6371 19.1179 31.5662 19.1429L31.5676 19.1431ZM30.8714 19.4799L30.9305 19.4428L30.8714 19.4799ZM30.9565 19.4272C30.9806 19.4127 31.0051 19.3982 31.0301 19.3846C31.0036 19.3984 30.9792 19.4125 30.9551 19.427L30.9565 19.4272ZM31.04 19.3792C31.0655 19.3649 31.092 19.3507 31.1184 19.3369C31.0906 19.3505 31.0641 19.3647 31.0379 19.3789L31.04 19.3792ZM31.1411 19.3254C31.1701 19.3108 31.1993 19.2977 31.2296 19.2819C31.1981 19.2961 31.1687 19.3106 31.1399 19.3238L31.1411 19.3254ZM31.2299 19.282C31.26 19.2675 31.2909 19.2547 31.3224 19.2397C31.2897 19.2534 31.2584 19.2688 31.2285 19.2818L31.2299 19.282ZM31.3452 19.2304C31.4089 19.2027 31.4753 19.1762 31.5444 19.1506C31.4746 19.1761 31.4077 19.2026 31.3438 19.2302L31.3452 19.2304ZM31.8078 19.0652C31.8445 19.0538 31.885 19.0429 31.9252 19.0323C31.9653 19.0217 32.0072 19.0113 32.0479 19.0018C32.0072 19.0113 31.9664 19.0215 31.9252 19.0323C31.884 19.0431 31.8449 19.0539 31.8064 19.0651L31.8078 19.0652ZM32.5433 18.9166C32.4676 18.9245 32.3904 18.9351 32.3116 18.9483C32.3897 18.935 32.4667 18.9244 32.5426 18.9165L32.5433 18.9166ZM32.2921 18.9524C32.2607 18.9578 32.2286 18.9635 32.1965 18.9698C32.2259 18.9631 32.2579 18.9574 32.2893 18.952L32.2921 18.9524ZM32.169 18.9754C32.1371 18.9821 32.1045 18.9892 32.0716 18.9979C32.1017 18.9888 32.1343 18.9818 32.1662 18.975L32.169 18.9754Z" fill="#1A1A1A"/>
<path d="M26.1381 20.1088L26.1126 20.1337C26.1219 20.1247 26.13 20.1163 26.1381 20.1088Z" fill="white"/>
<path d="M32.3227 17.8968C32.0551 17.9127 31.7897 17.9561 31.5309 18.0264C31.0667 18.1496 30.6985 18.3201 30.4069 18.5209L29.1955 15.1888L29.0962 14.9161C29.0962 14.9161 29.0211 15.6378 28.454 16.8229C28.3626 17.0143 28.2233 17.262 28.0741 17.5147C28.2768 16.7543 28.3084 15.8357 28.0102 14.7475C28.0102 14.7475 28.634 15.3904 28.767 15.6662C28.767 15.6662 27.8946 8.73293 19.5668 8.03057C19.5668 8.03057 20.1625 7.45374 20.6866 7.4585C20.6866 7.4585 18.0835 6.26233 14.4947 6.5013C14.4947 6.5013 14.8545 6.35759 15.4891 5.96676C15.4891 5.96676 13.6538 5.41086 11.9079 5.7125C12.1621 5.38706 12.4419 5.05969 12.7466 4.73809C14.6117 2.7695 17.4344 1.01681 21.4966 1.22034C30.2518 1.65859 31.7715 8.19136 32.2716 10.1734C32.6587 11.7043 32.3742 15.7366 32.2246 17.495L32.3227 17.8968Z" fill="#C7192D"/>
<path opacity="0.1" d="M28.9918 14.0625C29.0938 14.4309 29.162 14.8079 29.1955 15.1888L29.0966 14.9161C29.0966 14.9161 29.0216 15.6378 28.4545 16.8229C28.3627 17.0143 28.2237 17.262 28.0746 17.5147C28.2768 16.7546 28.3084 15.836 28.0102 14.7482C28.0102 14.7482 28.6343 15.3911 28.767 15.6668C28.767 15.6668 27.8945 8.73357 19.5671 8.03161C19.5671 8.03161 20.1625 7.45439 20.6866 7.45914C20.6866 7.45914 18.0835 6.26297 14.4947 6.50195C14.4947 6.50195 14.8545 6.35823 15.4891 5.9674C15.4891 5.9674 13.6537 5.41185 11.9075 5.71344C12.1617 5.38765 12.4419 5.06033 12.7466 4.73873C14.4448 4.53362 16.1279 5.04296 16.1279 5.04296C15.4763 5.44428 15.1047 5.59209 15.1047 5.59209C18.7917 5.34556 21.4659 6.57407 21.4659 6.57407C20.9274 6.56952 20.3155 7.16224 20.3155 7.16224C28.8698 7.88208 29.7659 15.0053 29.7659 15.0053C29.6313 14.7226 28.9918 14.0625 28.9918 14.0625Z" fill="#1A1A1A"/>
<path d="M15.4895 5.96704C15.4895 5.96704 8.97426 3.99501 8.8166 9.49952C8.7338 12.4208 10.0605 13.8194 10.0605 13.8194C10.0605 13.8194 9.99959 12.8148 10.0201 12.5681C10.0201 12.5681 13.0196 11.3283 17.2469 14.2717C17.2469 14.2717 16.6319 13.1291 16.6847 12.8163C16.6847 12.8163 19.7995 15.4482 21.3931 16.0556C21.3931 16.0556 21.1093 15.0477 21.0988 14.751C21.0988 14.751 21.9826 15.4839 23.6606 16.8945C25.7571 18.6567 25.8222 20.4182 25.8222 20.4182C25.8222 20.4182 29.0934 18.701 28.0093 14.7473C28.0093 14.7473 28.6334 15.3902 28.7661 15.6659C28.7661 15.6659 27.8936 8.73268 19.5659 8.03033C19.5659 8.03033 20.1616 7.4535 20.6857 7.45825C20.6857 7.45825 18.0825 6.26208 14.4938 6.50105C14.4937 6.50175 14.8549 6.35822 15.4895 5.96704Z" fill="white"/>
<path d="M35.2632 19.8396C35.2632 19.8396 34.3145 17.2876 31.5307 18.0265C28.7469 18.7655 29.4075 21.2 29.4115 21.7142L29.8199 21.4639C29.8199 21.4639 30.2809 22.9706 30.9406 23.4051L31.0051 22.9936C31.0051 22.9936 32.4477 23.804 32.7065 24.3013L33.0186 23.4211C33.0186 23.4211 33.3063 23.9504 33.367 24.0965C33.367 24.0965 34.6205 23.0895 34.5836 22.1725C34.5836 22.1725 34.8547 22.5011 34.845 22.7513C34.845 22.7513 35.9793 21.6689 34.7402 19.8053L35.2632 19.8396Z" fill="white"/>
<defs>
<linearGradient id="paint0_linear_1124_2400" x1="28.2882" y1="35.5223" x2="0.556429" y2="10.0323" gradientUnits="userSpaceOnUse">
<stop stop-color="#4BA1FC"/>
<stop offset="1" stop-color="#EC2AED"/>
</linearGradient>
</defs>
</svg>
