<?xml version="1.0" encoding="UTF-8"?>
<svg width="40px" height="40px" viewBox="0 0 32 36" version="1.1" xmlns="http://www.w3.org/2000/svg">
    <defs>
        <linearGradient x1="94.9365138%" y1="84.7500728%" x2="11.8093446%" y2="0%" id="linearGradient-1">
            <stop stop-color="#4BA1FC" offset="0%"></stop>
            <stop stop-color="#EC2AED" offset="100%"></stop>
        </linearGradient>
    </defs>
    <g id="Page-1" stroke="none" stroke-width="1" fill="none" fill-rule="evenodd">
        <path d="M16.2818996,0.271829257 L16.4254235,0.340786758 L30.8745761,8.68300498 C31.1590678,8.84725629 31.3479767,9.13339313 31.3907587,9.45387082 L31.4,9.59306568 L31.4,26.2775678 C31.4,26.6060717 31.2466516,26.9127408 30.9904993,27.1100298 L30.874573,27.1876303 L16.4254204,35.5297828 C16.1467362,35.6906799 15.8126222,35.7136652 15.5181009,35.5987387 L15.3745796,35.5297828 L0.925427015,27.1876303 C0.640933727,27.0233794 0.452023635,26.7372419 0.409241319,26.4167631 L0.4,26.2775678 L0.4,9.59306568 C0.4,9.26455867 0.553351335,8.95788703 0.809507625,8.76059832 L0.925435707,8.68299817 L15.3745649,0.34079342 C15.6068042,0.206706149 15.877539,0.168394204 16.1317766,0.225857935 L16.2818996,0.271829257 Z M29.2983051,19.7549576 L10.7758051,30.4486441 L15.8986864,33.4054661 L29.2983051,25.6699153 L29.2983051,19.7549576 Z M9.65139831,7.28402542 L9.71970339,28.6319915 L28.2408898,17.9369915 L9.65139831,7.28402542 Z M7.55101695,7.28271186 L2.50169492,10.1975 L2.50169492,25.6712288 L7.61932203,28.6254237 L7.55101695,7.28271186 Z M15.9,2.46326271 L10.7022458,5.4634322 L29.2983051,16.1216525 L29.2983051,10.1988136 L15.9,2.46326271 Z" id="Tabnine-logo-symbol" fill="url(#linearGradient-1)" fill-rule="nonzero"></path>
    </g>
</svg>